<svg viewBox="0 0 173 176" fill="none" xmlns="http://www.w3.org/2000/svg"><path d="M18.7282 102.052C21.6997 100.214 25.6969 101.112 27.5322 104.14L27.5783 104.22L32.9169 112.915C34.7522 115.942 33.7968 119.903 30.7616 121.724C27.7265 123.544 23.7468 122.583 21.9115 119.556L16.5729 110.861C14.7376 107.834 15.6931 103.873 18.7282 102.052Z" fill="#F49000"/><path d="M127.591 132.073C129.264 135.192 128.054 139.083 124.926 140.741L115.886 145.471C112.758 147.129 108.848 145.915 107.175 142.796C105.502 139.677 106.712 135.787 109.84 134.128L118.88 129.398C122.008 127.74 125.854 128.937 127.544 131.992C127.544 131.992 127.527 132.055 127.591 132.073Z" fill="#F49000"/><path d="M20.7515 24.4565L86.2551 61.2582C89.0995 62.8603 90.1065 66.4086 88.5684 69.255C88.2665 69.8532 87.8549 70.3529 87.316 70.8175C73.0598 83.7842 51.6972 86.274 34.3934 76.5281C17.2918 67.0424 8.21499 47.573 12.0477 28.4612C12.7299 25.2425 15.8175 23.2322 19.0686 23.8562C19.6587 23.9508 20.2138 24.172 20.7515 24.4565Z" fill="#58CC02"/><path d="M165.562 64.3907C168.826 64.4731 171.437 67.1691 171.362 70.4191C171.332 71.0241 171.221 71.6749 171.064 72.2448C164.495 90.6021 146.804 102.621 127.24 102.064C107.386 101.563 90.3021 88.5391 84.7247 70.0348C83.7228 66.9648 85.4467 63.6926 88.5268 62.7023C89.1406 62.4628 89.8467 62.3849 90.5179 62.4337L165.562 64.3907Z" fill="#58CC02"/><path d="M133.439 22.4853C131.258 21.9521 128.972 21.7988 126.727 21.9972C112.871 23.8315 103.947 24.1643 99.1576 22.9117C94.4032 21.5324 86.9115 16.6728 75.954 7.99562C74.0814 6.59342 72.0229 5.61693 69.8135 4.93951C60.8424 2.46555 51.581 7.74737 49.1188 16.6758L35.3411 66.6369C28.0418 93.1056 43.6274 120.502 70.1241 127.945C96.7543 135.153 124.116 119.6 131.415 93.1311L145.193 43.1699C147.655 34.2415 142.41 24.9593 133.439 22.4853Z" fill="#58CC02"/><path d="M96.1712 98.5385L84.0824 95.2048C83.5734 95.0645 83.0058 95.3849 82.8661 95.8915C82.8486 95.9548 82.8137 96.0814 82.8599 96.1623C83.1557 99.3101 85.3677 101.964 88.5028 102.761C91.7477 103.655 95.1521 102.482 96.8574 100.022C97.1243 99.5509 97.0095 98.9741 96.5355 98.7071C96.362 98.5912 96.2984 98.5736 96.1712 98.5385ZM75.6066 94.1621C75.8736 93.6906 75.7588 93.1138 75.3483 92.8644C75.2385 92.766 75.1749 92.7484 75.0476 92.7133L62.9589 89.3796C62.4673 89.1759 61.9983 89.3873 61.795 89.8763C61.76 90.0029 61.7076 90.1929 61.7363 90.3371C62.0147 93.5482 64.3078 96.1565 67.3793 96.9354C70.4969 97.7952 73.8839 96.6851 75.6066 94.1621ZM82.7169 105.867L70.6281 102.533C70.1191 102.392 69.569 102.65 69.4293 103.156C69.3944 103.283 69.3769 103.346 69.4056 103.49C69.684 106.701 71.9771 109.31 75.0485 110.089C78.2934 110.983 81.6804 109.873 83.3395 107.333C83.6064 106.861 83.4916 106.285 83.0812 106.035C82.9714 105.937 82.8441 105.902 82.7169 105.867Z" fill="#89E219"/><path d="M77.7783 17.7657L87.9367 37.5333C88.3809 38.4053 88.003 39.5276 87.0823 39.8869C86.9201 39.9785 86.7754 40.0067 86.6307 40.0349C79.309 41.0139 72.5122 35.8689 71.5113 28.5747C70.9335 24.4634 72.3405 20.3543 75.2733 17.4155C76.27 16.5321 77.3229 16.6862 77.7783 17.7657Z" fill="#89E219"/><path d="M69.5584 19.5189L79.4623 39.2164C79.9065 40.0884 79.5285 41.2106 78.6079 41.57C78.4457 41.6615 78.301 41.6898 78.1563 41.718C70.8346 42.6969 64.1014 37.5695 63.1005 30.2753C62.5227 26.164 63.9297 22.0549 66.7989 19.0986C67.4538 18.4615 68.5591 18.4257 69.2004 19.0795C69.3738 19.1954 69.4661 19.3572 69.5584 19.5189Z" fill="#89E219"/><path d="M73.0056 24.1491L74.4054 24.5351C84.3309 27.2722 90.211 37.4791 87.4869 47.3574L87.4695 47.4207L84.2739 59.0086C81.5498 68.8869 71.3153 74.718 61.3898 71.9809L61.3262 71.9633L59.9264 71.5773C50.0009 68.8402 44.1208 58.6333 46.8449 48.755L46.8623 48.6917L50.0579 37.1037C52.782 27.2255 63.0801 21.4119 73.0056 24.1491Z" fill="#89E219"/><path d="M120.025 29.4159C121.016 28.8032 122.016 29.1473 122.373 30.3359C124.161 37.5065 119.769 44.7443 112.573 46.5076C108.533 47.5055 104.264 46.6008 100.946 43.9825C100.178 43.2936 100.139 42.1928 100.748 41.4748C100.846 41.3657 100.945 41.2567 101.107 41.1651L120.025 29.4159Z" fill="#89E219"/><path d="M126.185 35.1345C126.949 34.5959 128.049 34.8308 128.528 35.5762C128.62 35.7379 128.712 35.8996 128.787 36.1247C130.575 43.2953 126.183 50.5331 118.987 52.2964C114.947 53.2943 110.678 52.3896 107.36 49.7713C106.592 49.0824 106.553 47.9816 107.162 47.2636C107.26 47.1545 107.359 47.0454 107.521 46.9539L126.185 35.1345Z" fill="#89E219"/><path d="M120.852 37.3432C130.777 40.0803 136.64 50.3505 133.916 60.2288L130.72 71.8167C127.996 81.695 117.762 87.5261 107.836 84.789L107.772 84.7714L106.373 84.3854C96.4472 81.6483 90.5671 71.4414 93.2912 61.5631L93.3086 61.4998L96.5042 49.9119C99.2283 40.0336 109.463 34.2025 119.388 36.9396L119.452 36.9572L120.852 37.3432Z" fill="#89E219"/><path d="M104.664 38.9436C98.4138 42.7392 90.2635 40.7642 86.437 34.5305C86.2986 34.2879 86.1601 34.0453 86.0216 33.8027C82.7162 45.2922 79.8873 55.5504 77.5175 64.6405L86.8242 67.1389L96.096 69.7639C98.784 60.7615 101.63 50.44 104.664 38.9436Z" fill="#89E219"/><path d="M71.3455 30.9137C78.6624 32.9315 82.9556 40.4522 80.9474 47.7342L78.7646 55.6495C76.5656 62.8789 68.9321 66.9744 61.7313 64.7842C54.7038 62.71 50.5492 55.4318 52.3602 48.368L54.543 40.4527C56.5337 33.234 64.0112 28.9593 71.2819 30.8962L71.3455 30.9137Z" fill="white"/><path d="M71.1127 38.9577C74.6121 39.9228 76.6433 43.4809 75.6828 46.9637L73.7969 53.8024C72.7092 57.2501 69.1127 59.12 65.6308 58.0917C62.3572 57.0527 60.4184 53.6562 61.1992 50.3284L63.0851 43.4896C64.0917 40.0877 67.6595 38.0736 71.1127 38.9577Z" fill="#122431"/><path d="M66.0002 37.1391C68.2271 37.7532 69.456 40 68.8623 42.1529C68.2686 44.3059 65.9981 45.5876 63.8349 44.991C61.6716 44.3945 60.379 42.1302 60.9728 39.9772C61.5665 37.8243 63.7733 36.525 65.9366 37.1216L66.0002 37.1391Z" fill="white"/><path d="M118.81 44.0031C126.127 46.0208 130.42 53.5416 128.412 60.8236L126.229 68.7389C124.03 75.9683 116.396 80.0637 109.196 77.8735C102.168 75.7993 98.0134 68.5212 99.8245 61.4574L102.007 53.5421C103.998 46.3234 111.475 42.0486 118.746 43.9855C118.746 43.9855 118.746 43.9855 118.81 44.0031Z" fill="white"/><path d="M114.887 51.0295C118.386 51.9945 120.417 55.5527 119.457 59.0354L117.571 65.8742C116.483 69.3218 112.887 71.1918 109.405 70.1635C106.131 69.1244 104.192 65.728 104.973 62.4001L106.859 55.5614C107.866 52.1595 111.433 50.1454 114.887 51.0295Z" fill="#122431"/><path d="M109.011 49.0004C111.238 49.6145 112.466 51.8613 111.873 54.0142C111.279 56.1672 109.009 57.4489 106.845 56.8524C104.682 56.2558 103.39 53.9915 103.983 51.8386C104.496 49.7314 106.703 48.4321 109.011 49.0004C108.947 48.9829 108.947 48.9829 109.011 49.0004Z" fill="white"/><path d="M98.4076 68.0847C109.503 66.5793 119.405 66.1755 127.777 66.849C127.777 66.849 125.578 81.0286 114.253 81.3805C99.7394 81.8751 98.4076 68.0847 98.4076 68.0847ZM56.1461 65.4245C46.5385 59.3 51.9821 46.0153 51.9821 46.0153C59.5336 49.6649 67.8749 55.1677 76.5668 62.1298C76.5842 62.0665 68.3723 73.225 56.1461 65.4245Z" fill="#89E219"/><path d="M89.577 57.4047C93.3308 58.4399 95.5466 62.3216 94.58 66.0751C94.58 66.0751 94.58 66.0751 94.5625 66.1384L91.4368 77.4731C90.4065 81.2091 86.4969 83.4697 82.6794 82.4169C78.9255 81.3817 76.646 77.4825 77.6938 73.6832L80.8195 62.3486C81.9134 58.6301 85.8056 56.4328 89.577 57.4047Z" fill="#F49000"/><path d="M88.8435 60.0642C91.7703 60.8713 93.4783 63.8634 92.675 66.7762L90.597 74.3116C89.7937 77.2244 86.7935 78.9181 83.8668 78.111C80.94 77.3039 79.2956 74.3293 80.0352 71.399L82.1133 63.8636C82.8991 61.0142 85.8993 59.3204 88.8435 60.0642Z" fill="#B66E28"/><path d="M87.3768 65.3833L96.9579 66.3901C97.1662 66.3794 97.3284 66.2879 97.3172 66.0804C97.8583 60.6423 93.7924 55.7735 88.3132 55.2846C84.1763 54.8933 80.2031 57.1363 78.4205 60.8693C78.3681 61.0592 78.443 61.2843 78.5703 61.3194L87.3768 65.3833Z" fill="#FFC200"/><path d="M90.9956 60.4533C90.8684 60.4182 90.7411 60.3831 90.6313 60.2847C89.5734 59.6522 88.4281 59.3364 87.1956 59.3372C86.3797 59.3166 85.8195 58.617 85.8382 57.8045C85.903 57.0729 86.4769 56.4816 87.1655 56.4671C88.942 56.4801 90.6598 56.9538 92.1282 57.8357C92.8393 58.2362 92.9941 59.1647 92.6111 59.8086C92.2631 60.3258 91.6319 60.6287 90.9956 60.4533Z" fill="#FFDE00"/><path opacity="0.3" d="M33.9201 175.873C31.7249 175.873 30.0001 174.141 30.0001 171.937C30.0001 169.732 31.7249 168 33.9201 168H117.964C120.159 168 121.884 169.732 121.884 171.937C121.884 174.141 120.159 175.873 117.964 175.873H33.9201Z" fill="#AFAFAF"/></svg>